{
	"asset":{
		"generator":"Khronos glTF Blender I/O v3.5.30",
		"version":"2.0"
	},
	"scene":0,
	"scenes":[
		{
			"name":"Scene",
			"nodes":[
				0
			]
		}
	],
	"nodes":[
		{
			"mesh":0,
			"name":"Text"
		}
	],
	"materials":[
		{
			"doubleSided":true,
			"name":"Material.001",
			"pbrMetallicRoughness":{
				"baseColorFactor":[
					0,
					0.008679589256644249,
					0.942923903465271,
					1
				],
				"metallicFactor":0,
				"roughnessFactor":0.4000000059604645
			}
		}
	],
	"meshes":[
		{
			"name":"Text",
			"primitives":[
				{
					"attributes":{
						"POSITION":0,
						"TEXCOORD_0":1,
						"NORMAL":2
					},
					"indices":3,
					"material":0
				}
			]
		}
	],
	"accessors":[
		{
			"bufferView":0,
			"componentType":5126,
			"count":12270,
			"max":[
				6.0580010414123535,
				0.11999999731779099,
				3.009000062942505
			],
			"min":[
				0,
				-0.11999999731779099,
				-0.6860000491142273
			],
			"type":"VEC3"
		},
		{
			"bufferView":1,
			"componentType":5126,
			"count":12270,
			"type":"VEC2"
		},
		{
			"bufferView":2,
			"componentType":5126,
			"count":12270,
			"type":"VEC3"
		},
		{
			"bufferView":3,
			"componentType":5123,
			"count":36084,
			"type":"SCALAR"
		}
	],
	"bufferViews":[
		{
			"buffer":0,
			"byteLength":147240,
			"byteOffset":0,
			"target":34962
		},
		{
			"buffer":0,
			"byteLength":98160,
			"byteOffset":147240,
			"target":34962
		},
		{
			"buffer":0,
			"byteLength":147240,
			"byteOffset":245400,
			"target":34962
		},
		{
			"buffer":0,
			"byteLength":72168,
			"byteOffset":392640,
			"target":34963
		}
	],
	"buffers":[
		{
			"byteLength":464808,
			"uri":"data:application/octet-stream;base64,"
		}
	]
}
